<svg width="50" height="51" viewBox="0 0 50 51" fill="none" xmlns="http://www.w3.org/2000/svg">
<path d="M31.3523 30.7018C31.3523 34.6462 27.6581 34.5551 27.2675 34.5551H19.7443V26.9574H27.2675C31.2258 26.9574 31.3523 29.9243 31.3523 30.7018ZM26.6881 23.9003C26.7504 23.9003 30.2632 23.9933 30.2632 20.5233C30.2632 19.0798 29.9368 17.1871 26.6881 17.1871H19.7443V23.9003H26.6881V23.9003ZM45.8334 11.6114V39.3886C45.828 41.2288 45.0945 42.9921 43.7933 44.2933C42.4921 45.5945 40.7288 46.3279 38.8886 46.3333H11.1114C9.27124 46.3279 7.50795 45.5945 6.20672 44.2933C4.9055 42.9921 4.17208 41.2288 4.16669 39.3886V11.6114C4.17208 9.77122 4.9055 8.00793 6.20672 6.7067C7.50795 5.40548 9.27124 4.67207 11.1114 4.66667H38.8886C40.7288 4.67207 42.4921 5.40548 43.7933 6.7067C45.0945 8.00793 45.828 9.77122 45.8334 11.6114V11.6114ZM35.6074 31.2534C35.6074 29.2472 34.9889 25.832 31.0454 24.9894V24.9215C33.1762 24.0119 34.5183 22.2941 34.5183 19.7467C34.5183 19.0956 34.7043 13.7217 27.301 13.7217H15.4892V38.027C27.4154 38.027 28.498 38.1832 30.705 37.4959C32.0266 37.0848 35.6074 35.8237 35.6074 31.2534V31.2534Z" fill="#563D7C"/>
</svg>
