<svg width="55" height="55" viewBox="0 0 55 55" fill="none" xmlns="http://www.w3.org/2000/svg">
<path d="M42.0199 20.4438C41.5365 20.2826 41.0531 20.1305 40.5697 19.9872C40.6502 19.656 40.7219 19.3248 40.7935 18.9936C41.8945 13.6583 41.1694 9.37037 38.7256 7.95598C36.3713 6.60426 32.5309 8.00969 28.6458 11.3935C28.2609 11.7247 27.8849 12.0738 27.5269 12.4229C27.2852 12.1902 27.0345 11.9574 26.7839 11.7336C22.7108 8.11711 18.6288 6.5953 16.1849 8.01864C13.8395 9.37932 13.1413 13.4166 14.126 18.4654C14.2245 18.9667 14.3319 19.4591 14.4572 19.9604C13.8843 20.1215 13.3203 20.3005 12.7922 20.4885C8.01189 22.1446 4.58334 24.7586 4.58334 27.462C4.58334 30.255 8.23569 33.0569 13.2039 34.7577C13.6068 34.892 14.0096 35.0263 14.4214 35.1427C14.2871 35.6798 14.1707 36.2079 14.0633 36.754C13.1234 41.7223 13.8574 45.6611 16.2028 47.0128C18.6198 48.4093 22.6839 46.977 26.6406 43.5126C26.9539 43.2351 27.2673 42.9487 27.5806 42.6443C27.9745 43.0292 28.3862 43.3962 28.798 43.7543C32.6294 47.0486 36.416 48.3824 38.7525 47.0307C41.1694 45.6342 41.9572 41.4 40.9367 36.2437C40.8561 35.8499 40.7666 35.447 40.6681 35.0352C40.9546 34.9547 41.2321 34.8652 41.5096 34.7756C46.6748 33.0658 50.4167 30.2997 50.4167 27.462C50.4167 24.7496 46.8897 22.1178 42.0199 20.4438V20.4438ZM29.9081 12.8437C33.2381 9.94329 36.3444 8.8064 37.7588 9.62102C39.2717 10.4893 39.8535 13.9985 38.9046 18.6086C38.842 18.913 38.7793 19.2084 38.6987 19.5038C36.7114 19.0562 34.6973 18.734 32.6742 18.5549C31.5104 16.8899 30.2393 15.2965 28.8607 13.8015C29.2098 13.4703 29.55 13.157 29.9081 12.8437V12.8437ZM19.5508 32.108C20.0073 32.8868 20.4728 33.6656 20.9652 34.4265C19.5687 34.2743 18.1812 34.0505 16.8115 33.7551C17.2054 32.4661 17.6978 31.1322 18.2707 29.7716C18.6825 30.5593 19.1032 31.3381 19.5508 32.108V32.108ZM16.8384 21.339C18.1275 21.0525 19.4971 20.8197 20.9204 20.6407C20.446 21.3837 19.9805 22.1446 19.5418 22.9145C19.1032 23.6754 18.6735 24.4542 18.2707 25.2419C17.7067 23.9081 17.2323 22.6012 16.8384 21.339ZM19.2912 27.5068C19.882 26.2714 20.5265 25.0629 21.2069 23.8723C21.8872 22.6817 22.6213 21.5269 23.3911 20.3901C24.7339 20.2916 26.1035 20.2379 27.5 20.2379C28.8965 20.2379 30.2751 20.2916 31.6089 20.3901C32.3698 21.518 33.0949 22.6728 33.7842 23.8544C34.4735 25.0361 35.118 26.2446 35.7267 27.471C35.127 28.7063 34.4824 29.9238 33.7931 31.1233C33.1128 32.3139 32.3877 33.4687 31.6268 34.6145C30.293 34.713 28.9054 34.7577 27.5 34.7577C26.0946 34.7577 24.7339 34.713 23.418 34.6324C22.6392 33.4955 21.9051 32.3318 21.2158 31.1412C20.5265 29.9506 19.891 28.7421 19.2912 27.5068ZM35.4582 32.0901C35.9147 31.3023 36.3444 30.5056 36.7651 29.7C37.3381 30.998 37.8394 32.3139 38.278 33.6656C36.8905 33.9789 35.485 34.2206 34.0706 34.3818C34.554 33.6298 35.0106 32.8599 35.4582 32.0901ZM36.7472 25.2419C36.3265 24.4542 35.8968 23.6664 35.4492 22.8966C35.0106 22.1357 34.554 21.3837 34.0796 20.6407C35.5208 20.8197 36.8994 21.0614 38.1885 21.3569C37.7767 22.6817 37.2933 23.9708 36.7472 25.2419V25.2419ZM27.5179 15.1711C28.4579 16.1917 29.3441 17.2659 30.1677 18.3759C28.3952 18.2953 26.6138 18.2953 24.8413 18.3759C25.7186 17.2211 26.6227 16.1469 27.5179 15.1711ZM17.1338 9.68368C18.6377 8.8064 21.9767 10.0597 25.4948 13.1749C25.7186 13.3718 25.9424 13.5867 26.1751 13.8015C24.7876 15.2965 23.5075 16.8899 22.3348 18.5549C20.3117 18.734 18.3065 19.0473 16.3192 19.4859C16.2028 19.0294 16.1043 18.5639 16.0059 18.0984C15.1644 13.7657 15.7194 10.4983 17.1338 9.68368V9.68368ZM14.9406 33.2807C14.5646 33.1733 14.1976 33.0569 13.8306 32.9316C11.9238 32.3318 9.7575 31.3829 8.19093 30.1386C7.28679 29.512 6.67807 28.5452 6.50799 27.462C6.50799 25.8238 9.33676 23.7291 13.4188 22.3058C13.929 22.1267 14.4483 21.9656 14.9675 21.8134C15.5762 23.7559 16.3102 25.6627 17.1607 27.5068C16.3013 29.3777 15.5583 31.3113 14.9406 33.2807V33.2807ZM25.3784 42.0535C23.9014 43.4052 22.1916 44.4794 20.3296 45.2135C19.3359 45.6879 18.1901 45.7327 17.1696 45.3298C15.7463 44.5063 15.1554 41.3463 15.9611 37.0942C16.0596 36.5929 16.167 36.0916 16.2923 35.5992C18.2975 36.0289 20.3206 36.3243 22.3706 36.4765C23.5523 38.1505 24.8503 39.7529 26.2378 41.2568C25.9513 41.5343 25.6649 41.8028 25.3784 42.0535ZM27.5716 39.8782C26.6585 38.8935 25.7455 37.8014 24.8592 36.6287C25.7186 36.6645 26.6048 36.6824 27.5 36.6824C28.422 36.6824 29.3262 36.6645 30.2214 36.6197C29.3978 37.7566 28.5116 38.8398 27.5716 39.8782V39.8782ZM39.2717 42.5637C39.1911 43.6558 38.654 44.6764 37.7946 45.3656C36.3713 46.1892 33.3366 45.115 30.0602 42.3041C29.6843 41.9819 29.3083 41.6327 28.9234 41.2747C30.293 39.7618 31.5552 38.1594 32.701 36.4765C34.751 36.3064 36.792 35.9931 38.8062 35.5365C38.8957 35.9036 38.9762 36.2706 39.0479 36.6287C39.4865 38.5623 39.5581 40.5764 39.2717 42.5637V42.5637ZM40.9009 32.9405C40.6502 33.0211 40.3996 33.1016 40.14 33.1733C39.5134 31.2218 38.7435 29.315 37.8573 27.462C38.7166 25.6358 39.4417 23.7559 40.0505 21.8313C40.516 21.9656 40.9636 22.1088 41.3932 22.252C45.5648 23.6843 48.492 25.8149 48.492 27.4441C48.492 29.1987 45.3679 31.4635 40.9009 32.9405ZM27.5 31.5977C29.7648 31.5977 31.5999 29.7626 31.5999 27.4978C31.5999 25.233 29.7648 23.3979 27.5 23.3979C25.2352 23.3979 23.4001 25.233 23.4001 27.4978C23.4001 29.7626 25.2352 31.5977 27.5 31.5977Z" fill="#67CCE2"/>
</svg>
