<svg width="55" height="55" viewBox="0 0 55 55" fill="none" xmlns="http://www.w3.org/2000/svg">
<path d="M26.1995 36.3013C26.178 36.3442 26.1565 36.3786 26.1995 36.3013V36.3013ZM44.041 30.0707C42.6007 30.0703 41.1795 30.401 39.8873 31.0375C39.4648 30.1853 39.028 29.4405 38.9563 28.8819C38.8704 28.2302 38.7773 27.8435 38.8776 27.07C38.9778 26.2966 39.429 25.2009 39.4218 25.1221C39.4147 25.0433 39.3216 24.6494 38.3977 24.6423C37.4739 24.6351 36.679 24.8213 36.5866 25.0648C36.4234 25.5098 36.2965 25.9672 36.207 26.4327C36.0423 27.2706 34.3601 30.2641 33.4076 31.8253C33.0925 31.2166 32.8275 30.6794 32.7702 30.2498C32.6843 29.5981 32.5912 29.2113 32.6914 28.4379C32.7917 27.6644 33.2429 26.5687 33.2357 26.4899C33.2285 26.4112 33.1354 26.0173 32.2123 26.0101C31.2892 26.003 30.4935 26.1892 30.4004 26.4327C30.3073 26.6761 30.2071 27.2491 30.0209 27.8005C29.8347 28.3519 27.5938 33.3364 27.0073 34.6326C26.7065 35.2915 26.4487 35.8214 26.2625 36.1795C26.2339 36.2368 26.2124 36.2726 26.1981 36.3013C26.2195 36.2655 26.2339 36.2296 26.2339 36.244C26.0763 36.5519 25.9832 36.7238 25.9832 36.7238V36.731C25.8615 36.9601 25.7254 37.1678 25.6609 37.1678C25.618 37.1678 25.5249 36.5662 25.6824 35.7427C26.019 34.0096 26.8139 31.3168 26.8068 31.2237C26.7996 31.1736 26.9572 30.7081 26.284 30.4574C25.6323 30.2211 25.396 30.615 25.3387 30.615C25.2814 30.615 25.2384 30.7582 25.2384 30.7582C25.2384 30.7582 25.9617 27.7217 23.8498 27.7217C22.5321 27.7217 20.6987 29.1684 19.7978 30.4789C19.232 30.7869 18.0074 31.4529 16.7183 32.1619C16.2242 32.434 15.7157 32.7133 15.2359 32.9783C15.2001 32.9425 15.1714 32.9067 15.1356 32.8709C12.5725 30.1352 7.84016 28.2016 8.04068 24.5277C8.1123 23.1885 8.5778 19.6722 17.1409 15.4039C24.1592 11.909 29.7702 12.8687 30.7363 15.0028C32.1257 18.0465 27.7364 23.7113 20.4481 24.5277C17.6701 24.8356 16.2099 23.7614 15.8446 23.3604C15.4651 22.9378 15.4078 22.9163 15.2645 22.9951C15.0282 23.124 15.1786 23.4964 15.2645 23.7184C15.4794 24.2842 16.3746 25.2868 17.8993 25.7881C19.2385 26.225 22.4955 26.4685 26.4337 24.9431C30.8581 23.2386 34.3021 18.4905 33.2923 14.5158C32.2639 10.4767 25.5664 9.15185 19.2335 11.4006C15.46 12.7398 11.3794 14.8453 8.44388 17.5881C4.95692 20.8538 4.39904 23.6969 4.62821 24.8858C5.44391 29.1039 11.2576 31.8539 13.5844 33.8878C13.4698 33.9523 13.3624 34.0096 13.2622 34.0669C12.0955 34.6469 7.66327 36.9673 6.55394 39.4165C5.30067 42.1952 6.76163 44.1861 7.72056 44.4583C10.7134 45.289 13.7778 43.7922 15.4242 41.3358C17.0707 38.8794 16.8709 35.671 16.1117 34.2101C16.1046 34.1886 16.0903 34.1743 16.0831 34.1528C16.3839 33.9738 16.6918 33.7947 16.9998 33.6157C17.5935 33.2648 18.1735 32.9425 18.682 32.6632C18.3956 33.4366 18.1879 34.3676 18.0804 35.714C17.9515 37.2896 18.6032 39.3306 19.4483 40.1327C19.8207 40.4836 20.2712 40.4908 20.5505 40.4908C21.5388 40.4908 21.9828 39.6743 22.4762 38.7004C23.0849 37.5116 23.622 36.1294 23.622 36.1294C23.622 36.1294 22.9489 39.8677 24.7894 39.8677C25.4618 39.8677 26.135 39.0012 26.4365 38.5571V38.5643C26.4365 38.5643 26.4509 38.5357 26.4867 38.4784C26.5583 38.3709 26.5941 38.3065 26.5941 38.3065V38.285C26.8662 37.8195 27.4606 36.7524 28.3551 34.9907C29.5153 32.7133 30.6246 29.8702 30.6246 29.8702C30.7318 30.4952 30.8801 31.1124 31.0686 31.7179C31.2691 32.3982 31.6917 33.143 32.0283 33.8663C31.7561 34.2387 31.5914 34.4536 31.5914 34.4536C31.5919 34.4591 31.5945 34.4642 31.5986 34.4679C31.3837 34.7544 31.1402 35.0623 30.8896 35.3631C29.9736 36.4517 28.8843 37.6978 28.7411 38.0558C28.5692 38.4784 28.6122 38.7935 28.9416 39.037C29.1851 39.2232 29.6148 39.2518 30.0653 39.216C30.8889 39.1587 31.4689 38.9582 31.7482 38.8293C32.2631 38.6446 32.7498 38.3891 33.1942 38.0702C34.0894 37.4113 34.6336 36.466 34.5835 35.2199C34.5549 34.5324 34.3328 33.8448 34.0607 33.2003C34.1395 33.0857 34.2254 32.964 34.3042 32.8422C35.7215 30.7725 36.8172 28.5009 36.8172 28.5009C36.9244 29.1259 37.0727 29.7431 37.2612 30.3486C37.4331 30.9287 37.769 31.566 38.0769 32.1891C36.7456 33.2705 35.922 34.5238 35.6355 35.3473C35.1056 36.8727 35.5209 37.5603 36.3016 37.7178C36.6525 37.7894 37.1538 37.6247 37.5262 37.4672C38.0792 37.2829 38.6007 37.0148 39.0724 36.6722C39.9676 36.0134 40.8334 35.0895 40.7761 33.8363C40.7546 33.2705 40.5971 32.7047 40.3894 32.1605C41.5137 31.6878 42.974 31.43 44.836 31.6448C48.8235 32.1103 49.6041 34.6025 49.4537 35.641C49.3033 36.6794 48.4654 37.2595 48.1861 37.4314C47.9068 37.6032 47.8209 37.6677 47.8424 37.7966C47.8782 37.9828 48.0071 37.9756 48.2434 37.9327C48.5729 37.8754 50.3339 37.0876 50.4127 35.1611C50.5272 32.7262 48.1861 30.0478 44.0389 30.0693L44.041 30.0707ZM13.3051 40.4335C11.9881 41.8729 10.1404 42.4172 9.34623 41.9589C8.49401 41.4633 8.8306 39.3449 10.4556 37.8109C11.4438 36.8799 12.7179 36.0205 13.5629 35.4906C13.7563 35.376 14.0356 35.2041 14.3794 34.9964C14.4367 34.9606 14.4653 34.9463 14.4653 34.9463C14.5298 34.9033 14.6014 34.8675 14.673 34.8245C15.2667 37.0017 14.6945 38.921 13.3051 40.432V40.4335ZM22.9274 33.8878C22.469 35.0122 21.5029 37.8768 20.9157 37.7264C20.4144 37.5975 20.1064 35.4132 20.8154 33.2648C21.1735 32.1834 21.9326 30.8943 22.3838 30.393C23.1064 29.5837 23.9013 29.3259 24.0875 29.6482C24.3382 30.0707 23.2138 33.186 22.9274 33.8878ZM30.8767 37.6834C30.6833 37.7837 30.5043 37.8482 30.4184 37.798C30.3539 37.7622 30.4971 37.6261 30.4971 37.6261C30.4971 37.6261 31.4926 36.5591 31.8865 36.0721C32.1156 35.7856 32.3806 35.449 32.6664 35.0766C32.6664 35.1124 32.6735 35.1483 32.6735 35.1912C32.6642 36.4731 31.4331 37.3397 30.8745 37.6834H30.8767ZM37.0055 36.2869C36.8623 36.1867 36.8838 35.8501 37.3636 34.8045C37.5498 34.3963 37.9788 33.7088 38.7243 33.0499C38.8087 33.2993 38.8546 33.5601 38.8604 33.8234C38.8532 35.4347 37.7002 36.0363 37.0063 36.2869H37.0055Z" fill="#E84393"/>
</svg>
