<svg width="45" height="45" viewBox="0 0 45 45" fill="none" xmlns="http://www.w3.org/2000/svg">
<path d="M22.5 45C34.9264 45 45 34.9264 45 22.5C45 10.0736 34.9264 0 22.5 0C10.0736 0 0 10.0736 0 22.5C0 34.9264 10.0736 45 22.5 45Z" fill="#6332F6"/>
<path d="M28.53 30.135C28.53 29.325 28.3725 28.6275 28.0575 28.0425C27.7425 27.4575 27.315 26.9325 26.775 26.4675C26.235 26.0025 25.59 25.5825 24.84 25.2075C24.09 24.8325 23.28 24.435 22.41 24.015C21.39 23.535 20.3625 23.025 19.3275 22.485C18.2925 21.945 17.3625 21.315 16.5375 20.595C15.7125 19.875 15.045 19.0425 14.535 18.0975C14.025 17.1525 13.77 16.05 13.77 14.79C13.77 13.74 13.965 12.6975 14.355 11.6625C14.745 10.6275 15.315 9.70501 16.065 8.89501C16.815 8.085 17.7525 7.42501 18.8775 6.91501C20.0025 6.405 21.315 6.15001 22.815 6.15001C23.925 6.15001 24.9525 6.2925 25.8975 6.57751C26.8425 6.86251 27.69 7.23 28.44 7.68001C29.19 8.13001 29.85 8.625 30.42 9.16501C30.99 9.70501 31.455 10.23 31.815 10.74L28.98 13.035C28.71 12.645 28.3725 12.255 27.9675 11.865C27.5625 11.475 27.0975 11.1225 26.5725 10.8075C26.0475 10.4925 25.47 10.2375 24.84 10.0425C24.21 9.8475 23.535 9.75001 22.815 9.75001C21.945 9.75001 21.1875 9.885 20.5425 10.155C19.8975 10.425 19.35 10.785 18.9 11.235C18.45 11.685 18.1125 12.2025 17.8875 12.7875C17.6625 13.3725 17.55 13.965 17.55 14.565C17.55 15.315 17.715 15.9675 18.045 16.5225C18.375 17.0775 18.84 17.595 19.44 18.075C20.04 18.555 20.775 19.02 21.645 19.47C22.515 19.92 23.49 20.385 24.57 20.865C25.77 21.405 26.8575 21.9675 27.8325 22.5525C28.8075 23.1375 29.6325 23.775 30.3075 24.465C30.9825 25.155 31.5 25.935 31.86 26.805C32.22 27.675 32.4 28.695 32.4 29.865C32.4 31.245 32.1525 32.4825 31.6575 33.5775C31.1625 34.6725 30.48 35.6025 29.61 36.3675C28.74 37.1325 27.7125 37.7175 26.5275 38.1225C25.3425 38.5275 24.075 38.73 22.725 38.73C21.375 38.73 20.16 38.5425 19.08 38.1675C18 37.7925 17.04 37.2975 16.2 36.6825C15.36 36.0675 14.64 35.3625 14.04 34.5675C13.44 33.7725 12.96 32.97 12.6 32.16L15.75 30.27C16.02 30.9 16.3725 31.5075 16.8075 32.0925C17.2425 32.6775 17.745 33.195 18.315 33.645C18.885 34.095 19.5375 34.455 20.2725 34.725C21.0075 34.995 21.81 35.13 22.68 35.13C23.43 35.13 24.1575 35.025 24.8625 34.815C25.5675 34.605 26.19 34.29 26.73 33.87C27.27 33.45 27.705 32.9325 28.035 32.3175C28.365 31.7025 28.53 30.975 28.53 30.135Z" fill="white"/>
</svg>
